<?xml version="1.0" encoding="UTF-8"?>
<svg width="36px" height="36px" viewBox="0 0 36 36" version="1.1" xmlns="http://www.w3.org/2000/svg" xmlns:xlink="http://www.w3.org/1999/xlink">
    <!-- Generator: Sketch 52.3 (67297) - http://www.bohemiancoding.com/sketch -->
    <title>icon_emoji</title>
    <desc>Created with Sketch.</desc>
    <g id="-" stroke="none" stroke-width="1" fill="none" fill-rule="evenodd">
        <g id="1.07排队中" transform="translate(-287.000000, -558.000000)">
            <g id="人工输入框" transform="translate(0.000000, 548.000000)">
                <g id="输入框">
                    <g id="icon_emoji" transform="translate(287.000000, 10.000000)">
                        <rect id="fw" fill-opacity="0.3" fill="#D8D8D8" fill-rule="nonzero" opacity="0" x="0" y="0" width="36" height="36"></rect>
                        <g id="表情" transform="translate(5.000000, 5.000000)">
                            <circle id="表情_默认" fill="#D4D4D5" cx="13" cy="13" r="13"></circle>
                            <path d="M8,13 L18,13 L18,15 C18,17.7614237 15.7614237,20 13,20 L13,20 C10.2385763,20 8,17.7614237 8,15 L8,13 Z" id="矩形" fill="#363638"></path>
                            <path d="M18.4166667,6.49458333 C19.6192667,6.49458333 20.5941667,7.46948329 20.5941667,8.67208333 C20.5941667,9.87468338 19.6192667,10.8495833 18.4166667,10.8495833 C17.2140666,10.8495833 16.2391667,9.87468338 16.2391667,8.67208333 C16.2391667,7.46948329 17.2140666,6.49458333 18.4166667,6.49458333 Z" id="表情_默认-2-path" fill="#363638"></path>
                            <path d="M7.58333333,6.49458333 C8.78522373,6.49757312 9.75740563,7.473793 9.75541368,8.67568546 C9.75342172,9.87757793 8.7780093,10.85057 7.5761156,10.8495759 C6.3742219,10.8485817 5.40042039,9.87397745 5.40041667,8.67208333 C5.40041488,8.0936347 5.6305728,7.5389566 6.04010554,7.13044007 C6.44963828,6.72192354 7.00488649,6.49314441 7.58333333,6.49458333 Z" id="表情_默认-2-path" fill="#363638"></path>
                        </g>
                    </g>
                </g>
            </g>
        </g>
    </g>
</svg>