<?xml version="1.0" encoding="UTF-8"?>
<svg width="36px" height="36px" viewBox="0 0 36 36" version="1.1" xmlns="http://www.w3.org/2000/svg" xmlns:xlink="http://www.w3.org/1999/xlink">
    <!-- Generator: Sketch 52.3 (67297) - http://www.bohemiancoding.com/sketch -->
    <title>icon_send_disabled</title>
    <desc>Created with Sketch.</desc>
    <g id="-" stroke="none" stroke-width="1" fill="none" fill-rule="evenodd">
        <g id="1.03机器人对话" transform="translate(-333.000000, -558.000000)">
            <g id="SaaS机器人输入框" transform="translate(0.000000, 548.000000)">
                <g id="KAB机器人输入框">
                    <g id="机器人输入框">
                        <g id="icon_send_disabled" transform="translate(333.000000, 10.000000)">
                            <rect id="fw" fill="#F4F4F4" fill-rule="nonzero" opacity="0" x="0" y="0" width="36" height="36"></rect>
                            <g id="发送" transform="translate(15.000000, 18.743015) rotate(10.000000) translate(-15.000000, -18.743015) translate(4.000000, 7.743015)">
                                <path d="M12.449413,21.1714885 L10.117413,12.8323885 C10.0131386,12.4586833 9.7211182,12.1666629 9.347413,12.0623885 L1.007763,9.72983853 C0.54391211,9.59998689 0.216860044,9.185642 0.198294446,8.70431632 C0.179728847,8.22299063 0.473892621,7.78468433 0.926362995,7.61948853 L20.158213,0.598188528 C20.5636141,0.450233106 21.0180273,0.550811785 21.3231247,0.8560272 C21.6282222,1.16124262 21.7286251,1.61569462 21.580513,2.02103853 L14.563063,21.2534385 C14.3993227,21.7085768 13.9595631,22.0051592 13.4762303,21.9864195 C12.9928976,21.9676799 12.5774216,21.6379384 12.449413,21.1714885 Z" id="形状_617" fill="#E3E3E8"></path>
                                <path d="M9.92435861,12.4492752 L21.0684236,0.665637495 C21.1606347,0.715757628 21.2465791,0.779451944 21.3231247,0.8560272 C21.6282222,1.16124262 21.7286251,1.61569462 21.580513,2.02103853 L14.563063,21.2534385 C14.3993227,21.7085768 13.9595631,22.0051592 13.4762303,21.9864195 C12.9928976,21.9676799 12.5774216,21.6379384 12.449413,21.1714885 L10.117413,12.8323885 C10.0779886,12.6910968 10.0117264,12.5614816 9.92435861,12.4492752 Z" id="合并形状" fill="#BCBCC1"></path>
                            </g>
                        </g>
                    </g>
                </g>
            </g>
        </g>
    </g>
</svg>