<?xml version="1.0" encoding="UTF-8"?>
<svg width="36px" height="36px" viewBox="0 0 36 36" version="1.1" xmlns="http://www.w3.org/2000/svg" xmlns:xlink="http://www.w3.org/1999/xlink">
    <!-- Generator: Sketch 52.3 (67297) - http://www.bohemiancoding.com/sketch -->
    <title>icon_img</title>
    <desc>Created with Sketch.</desc>
    <g id="-" stroke="none" stroke-width="1" fill="none" fill-rule="evenodd">
        <g id="1.07排队中" transform="translate(-6.000000, -558.000000)">
            <g id="人工输入框" transform="translate(0.000000, 548.000000)">
                <g id="输入框">
                    <g id="icon_img" transform="translate(6.000000, 10.000000)">
                        <rect id="f'w" fill-opacity="0.3" fill="#D8D8D8" fill-rule="nonzero" opacity="0" x="0" y="0" width="36" height="36" rx="1"></rect>
                        <g id="图片" transform="translate(5.000000, 5.000000)">
                            <path d="M13,0 C20.1797017,0 26,5.82029825 26,13 C26,20.1797017 20.1797017,26 13,26 C5.82029825,26 0,20.1797017 0,13 C0,5.82029825 5.82029825,2.6268454e-13 13,0 Z" id="圆角矩形_1013" fill="#D4D4D5"></path>
                            <path d="M15.7074634,25.7176636 C14.8341385,25.9026725 13.9284353,26 13,26 C7.51535306,26 2.82399786,22.6035143 0.914540607,17.7991493 C2.4133814,16.8199479 4.20012038,16.2510317 6.11853645,16.25 C9.99765867,16.25 13.4948175,18.6073456 14.9792933,22.2228101 C15.4437938,23.3541084 15.6826097,24.5388767 15.7074634,25.7176636 Z" id="合并形状" fill="#9E9EA2"></path>
                            <path d="M25.6818443,10.2725525 C25.8900741,11.1904857 26,12.1456295 26,13.1263889 C26,20.236288 20.2230075,26 13.0967262,26 C12.7869202,26 12.4796643,25.9891068 12.1753223,25.9676833 C10.9737087,24.2214907 10.2916667,22.1214719 10.2916667,19.9102222 C10.2916667,13.9997322 15.0941056,9.20833333 21.0182143,9.20833333 C22.6679551,9.20833333 24.2559253,9.58535684 25.6818443,10.2725525 Z" id="合并形状" fill="#363638"></path>
                            <circle id="椭圆_560" fill="#363638" cx="7.3125" cy="8.39583333" r="1.89583333"></circle>
                        </g>
                    </g>
                </g>
            </g>
        </g>
    </g>
</svg>