<?xml version="1.0" standalone="no"?><!DOCTYPE svg PUBLIC "-//W3C//DTD SVG 1.1//EN" "http://www.w3.org/Graphics/SVG/1.1/DTD/svg11.dtd"><svg t="1564056229601" class="icon" viewBox="0 0 1024 1024" version="1.1" xmlns="http://www.w3.org/2000/svg" p-id="6302" xmlns:xlink="http://www.w3.org/1999/xlink" width="200" height="200"><defs><style type="text/css"></style></defs><path d="M876.198554 247.240482h-99.439036c-3.207711 0-9.86988-6.662169-13.324337-9.86988L750.110843 200.852048c-6.662169-29.856386-39.726265-53.050602-72.790361-53.050602H346.432771c-33.064096 0-66.128193 23.194217-76.244819 53.050602l-9.86988 36.518554c-3.207711 6.662169-9.86988 9.86988-13.324337 9.86988H147.801446c-56.258313 0-99.439036 42.933976-99.439036 99.439036v430.326747c0 56.258313 42.933976 99.439036 99.439036 99.439036h728.397108c56.258313 0 99.439036-42.933976 99.439036-99.439036V346.432771c0-56.258313-43.180723-99.192289-99.439036-99.192289z m33.064097 529.519036c0 19.986506-13.324337 33.064096-33.064097 33.064096H147.801446c-19.986506 0-33.064096-13.324337-33.064097-33.064096V346.432771c0-19.986506 13.324337-33.064096 33.064097-33.064096h99.439036c33.064096 0 66.128193-23.194217 76.244819-53.050603l13.324338-36.518554c0-3.207711 6.662169-9.86988 9.869879-9.869879h331.134458c3.207711 0 9.86988 3.207711 13.324337 9.869879l13.324338 36.518554c6.662169 29.856386 39.726265 53.050602 72.790361 53.050603h99.439036c19.986506 0 33.064096 13.324337 33.064097 33.064096v430.326747z m0 0" fill="#1296db" p-id="6303"></path><path d="M512 379.496867c-92.776867 0-165.567229 72.790361-165.567229 165.567229 0 92.776867 72.790361 165.567229 165.567229 165.567229 92.776867 0 165.567229-72.790361 165.567229-165.567229 0-92.776867-72.790361-165.567229-165.567229-165.567229z m0 265.006266c-56.258313 0-99.439036-42.933976-99.439036-99.439037 0-56.258313 42.933976-99.439036 99.439036-99.439036 56.258313 0 99.439036 42.933976 99.439036 99.439036 0 56.258313-43.180723 99.439036-99.439036 99.439037z m0 0" fill="#1296db" p-id="6304"></path></svg>